<?xml version="1.0" encoding="UTF-8"?>
<!DOCTYPE svg PUBLIC "-//W3C//DTD SVG 1.0//EN" "http://www.w3.org/TR/2001/REC-SVG-20010904/DTD/svg10.dtd">
<!-- Creator: CorelDRAW Home & Student X8 -->
<svg xmlns="http://www.w3.org/2000/svg" xml:space="preserve" width="8.5in" height="11in" version="1.0" style="shape-rendering:geometricPrecision; text-rendering:geometricPrecision; image-rendering:optimizeQuality; fill-rule:evenodd; clip-rule:evenodd"
viewBox="0 0 8500 11000"
 xmlns:xlink="http://www.w3.org/1999/xlink">
 <defs>
  <style type="text/css">
   <![CDATA[
    .fil0 {fill:#D945DF}
    .fil1 {fill:#E38AE6}
   ]]>
  </style>
 </defs>
 <g id="Layer_x0020_1">
  <metadata id="CorelCorpID_0Corel-Layer"/>
  <path class="fil0" d="M4776 5775l1218 0c123,0 98,187 -26,187l-1218 0c-123,0 -98,-187 26,-187l0 0zm1716 -846l0 -1 -712 -824 -973 0c-106,2 -204,88 -218,192l-14 109 -983 0c-159,0 -159,242 0,242 685,0 924,0 1606,0 161,0 161,243 0,243l-2529 0c-161,0 -159,243 0,243l1408 0c206,0 172,242 25,242l-735 0c-159,0 -159,243 0,243l868 0c78,0 153,26 153,120 0,126 -120,123 -187,123l0 0 -1243 0c-158,0 -158,242 0,242 1043,0 46,0 1090,0 159,0 159,243 0,243 -803,0 435,0 -367,0 -160,0 -160,243 0,243l601 0 -16 108c-14,104 61,192 168,192l1602 0c107,0 204,-88 218,-192l238 -1768 0 0zm-1653 380l1218 0c122,0 98,188 -26,188l-1219 0c-122,0 -97,-188 27,-188l0 0 0 0zm-1828 66c159,0 159,243 0,243 -159,0 -159,-243 0,-243l0 0zm-470 486c161,0 161,242 0,242 -159,0 -159,-242 0,-242l0 0zm706 -1456c158,0 158,242 0,242 -161,0 -161,-242 0,-242l0 0zm-1106 1456c159,0 159,242 0,242 -160,0 -160,-242 0,-242l0 0zm3199 364l-634 0c-124,0 -148,187 -24,187l633 0c124,0 149,-187 25,-187l0 0 0 0z"/>
  <path class="fil1" d="M6492 4928l-712 -824 0 0 -84 631c-16,106 61,193 166,193l630 0 0 0z"/>
 </g>
</svg>
